<svg id="Слой_1" data-name="Слой 1" xmlns="http://www.w3.org/2000/svg" viewBox="0 0 88.05 110.11"><title>graphic-design</title><path d="M-123,166h-52V152h1a17.21,17.21,0,0,0,1,3.07c2.55,4.59,6.4,7.05,11.76,6.94a43.49,43.49,0,0,1,6,0,10.63,10.63,0,0,0,7.15-2.07c3.67-2.35,6.19-5.2,6.15-10.13-0.18-21.31-.1-42.62,0-63.93a12.53,12.53,0,0,0-2.11-6.65c-2.22-3.79-5.45-6.85-7.26-11-1.19-2.69-3.38-4.93-5.08-7.3h-3.22c-1.47,2.17-3,4.36-4.46,6.61-3.32,5.11-6.6,10.25-9.89,15.38h-1V56h52c-1,1.19-1,2.62-1,4.08,0,7.82,0,15.64,0,23.46q0,38.69,0,77.38C-124,162.67-124.33,164.5-123,166Z" transform="translate(175 -55.95)" style="fill:#fcfcfc"/><path d="M-123,166c-1.33-1.5-1-3.33-1-5.08q0-38.69,0-77.38c0-7.82,0-15.64,0-23.46,0-1.46,0-2.88,1-4.08h35l1,1v1c-2.14.79-.93,2.58-0.93,3.79Q-88.06,111-88,160.21a24.38,24.38,0,0,0,0,3,2.37,2.37,0,0,0,1,.8v1l-1,1h-35Zm12.82-37V134h-8.62v9.05h8.57v5.06H-119c0,2.31,0,4.45,0,6.59s0,4.2,0,6.09h26.83c0.72-19.34.43-95.45-.35-99.64h-26.39V74.07h8.76v5.06h-8.7V88c2.63,0,5.11,0,7.58,0a3.4,3.4,0,0,1,1.07.31v4.72h-8.6v9.05h8.54v5.06h-8.66V115h8.78v5.06h-8.73V129h8.68Z" transform="translate(175 -55.95)" style="fill:#4d4d53"/><path d="M-87,164a2.37,2.37,0,0,1-1-.8,24.38,24.38,0,0,1,0-3q0-49.21.07-98.42c0-1.21-1.21-3,.93-3.79V164Z" transform="translate(175 -55.95)" style="fill:#5b5b60"/><path d="M-174,152h-1V83h1v69Z" transform="translate(175 -55.95)" style="fill:#87878a"/><path d="M-87,57l-1-1Q-86.71,55.71-87,57Z" transform="translate(175 -55.95)" style="fill:#5b5b60"/><path d="M-88,166l1-1Q-86.71,166.29-88,166Z" transform="translate(175 -55.95)" style="fill:#5b5b60"/><path d="M-174,152q0-34.5,0-69c3.29-5.13,6.57-10.27,9.89-15.38,1.46-2.24,3-4.44,4.46-6.61h3.22c1.7,2.37,3.9,4.61,5.08,7.3,1.81,4.11,5,7.17,7.26,11A12.53,12.53,0,0,1-142,85.92c-0.06,21.31-.14,42.62,0,63.93,0,4.93-2.48,7.78-6.15,10.13a10.63,10.63,0,0,1-7.15,2.07,43.49,43.49,0,0,0-6,0c-5.36.11-9.21-2.34-11.76-6.94A17.21,17.21,0,0,1-174,152Zm12.15-62,2.4-5.87h2.75l2.8,5.88h5.34c2.36-3.18,2.09-6.18-.44-9.07A15.74,15.74,0,0,1-150.46,79a18.57,18.57,0,0,1-.94-1.83H-164.9c-2.16,3.63-5.41,6.7-3.81,11.55C-167,90-167,90-161.85,90Zm-3.33,43.92V95.34l-4.64-1.42v40h4.64ZM-169,153.45c2.1,2.49,4.57,3.91,8,3.6a34.51,34.51,0,0,1,8,0c2.25,0.32,2.69-2.15,4.61-2.34,0.58-.06,1.12-2.07,1.38-3.25a15.28,15.28,0,0,0,0-3.25h-22v5.2Zm9.14-60.76v41.07h3.73V93.83Zm9,2.63V134l3.71-.18V94.23Zm3.68,47.6v-4.85h-21.42c-1.31,1.8-1.31,1.8-1,4.85h22.46ZM-158,67.23l-3,4.51h6.19Z" transform="translate(175 -55.95)" style="fill:#49494f"/><path d="M-110.18,129h-8.68v-8.88h8.73V115h-8.78v-7.88h8.66v-5.06h-8.54V93.05h8.6V88.33a3.4,3.4,0,0,0-1.07-.31c-2.47,0-5,0-7.58,0V79.12h8.7V74.07h-8.76V61.18H-92.5c0.78,4.19,1.07,80.3.35,99.64H-119c0-1.9,0-4,0-6.09s0-4.28,0-6.59h8.77v-5.06h-8.57V134h8.62V129Z" transform="translate(175 -55.95)" style="fill:#fdfdfd"/><path d="M-161.85,90c-5.13,0-5.13,0-6.86-1.23-1.6-4.86,1.65-7.92,3.81-11.55h13.51a18.57,18.57,0,0,0,.94,1.83A15.74,15.74,0,0,0-149,80.91c2.54,2.89,2.8,5.9.44,9.07h-5.34l-2.8-5.88h-2.75Z" transform="translate(175 -55.95)" style="fill:#f8f8f8"/><path d="M-165.17,133.89h-4.64v-40l4.64,1.42v38.55Z" transform="translate(175 -55.95)" style="fill:#eaeaea"/><path d="M-169,153.45v-5.2h22a15.28,15.28,0,0,1,0,3.25c-0.26,1.18-.8,3.19-1.38,3.25-1.92.19-2.37,2.66-4.61,2.34a34.51,34.51,0,0,0-8,0C-164.42,157.36-166.9,155.94-169,153.45Z" transform="translate(175 -55.95)" style="fill:#f9f9f9"/><path d="M-159.86,92.69l3.73,1.14v39.92h-3.73V92.69Z" transform="translate(175 -55.95)" style="fill:#fcfcfc"/><path d="M-150.85,95.32l3.71-1.1v39.62l-3.71.18V95.32Z" transform="translate(175 -55.95)" style="fill:#fdfdfd"/><path d="M-147.17,142.93h-22.46c-0.28-3-.28-3,1-4.85h21.42v4.85Z" transform="translate(175 -55.95)" style="fill:#e8e8e9"/><path d="M-158,67.23l3.21,4.51H-161Z" transform="translate(175 -55.95)" style="fill:#eeeeef"/></svg>